<mxfile host="app.diagrams.net" agent="Mozilla/5.0 (Windows NT 10.0; Win64; x64) AppleWebKit/537.36 (KHTML, like Gecko) Chrome/136.0.0.0 Safari/537.36" version="27.0.3">
  <diagram id="prtHgNgQTEPvFCAcTncT" name="Page-1">
    <mxGraphModel dx="1453" dy="1944" grid="1" gridSize="10" guides="1" tooltips="1" connect="1" arrows="1" fold="1" page="1" pageScale="1" pageWidth="827" pageHeight="1169" math="0" shadow="0">
      <root>
        <mxCell id="0" />
        <mxCell id="1" parent="0" />
        <mxCell id="AnIqcLEGAnxSQ210GE3i-2" value="Pengajuan Surat" style="swimlane;childLayout=stackLayout;resizeParent=1;resizeParentMax=0;startSize=20;html=1;" vertex="1" parent="1">
          <mxGeometry x="270.00000000000045" y="-120" width="560" height="510" as="geometry" />
        </mxCell>
        <mxCell id="AnIqcLEGAnxSQ210GE3i-3" value="Mahasiswa" style="swimlane;startSize=20;html=1;" vertex="1" parent="AnIqcLEGAnxSQ210GE3i-2">
          <mxGeometry y="20" width="290" height="490" as="geometry" />
        </mxCell>
        <mxCell id="AnIqcLEGAnxSQ210GE3i-10" value="START" style="strokeWidth=2;html=1;shape=mxgraph.flowchart.start_1;whiteSpace=wrap;" vertex="1" parent="AnIqcLEGAnxSQ210GE3i-3">
          <mxGeometry x="69.99999999999955" y="30" width="100" height="60" as="geometry" />
        </mxCell>
        <mxCell id="AnIqcLEGAnxSQ210GE3i-12" value="Mengajukan Surat (Isi Form)" style="rounded=1;whiteSpace=wrap;html=1;absoluteArcSize=1;arcSize=14;strokeWidth=2;" vertex="1" parent="AnIqcLEGAnxSQ210GE3i-3">
          <mxGeometry x="25" y="140" width="190" height="40" as="geometry" />
        </mxCell>
        <mxCell id="AnIqcLEGAnxSQ210GE3i-11" style="edgeStyle=orthogonalEdgeStyle;rounded=0;orthogonalLoop=1;jettySize=auto;html=1;" edge="1" parent="AnIqcLEGAnxSQ210GE3i-3" source="AnIqcLEGAnxSQ210GE3i-10" target="AnIqcLEGAnxSQ210GE3i-12">
          <mxGeometry relative="1" as="geometry">
            <mxPoint x="119.99999999999955" y="130" as="targetPoint" />
          </mxGeometry>
        </mxCell>
        <mxCell id="AnIqcLEGAnxSQ210GE3i-22" value="FINISH" style="strokeWidth=2;html=1;shape=mxgraph.flowchart.start_1;whiteSpace=wrap;" vertex="1" parent="AnIqcLEGAnxSQ210GE3i-3">
          <mxGeometry x="79.99999999999955" y="400" width="100" height="60" as="geometry" />
        </mxCell>
        <mxCell id="AnIqcLEGAnxSQ210GE3i-4" value="Admin" style="swimlane;startSize=20;html=1;" vertex="1" parent="AnIqcLEGAnxSQ210GE3i-2">
          <mxGeometry x="290" y="20" width="270" height="490" as="geometry" />
        </mxCell>
        <mxCell id="AnIqcLEGAnxSQ210GE3i-18" style="edgeStyle=orthogonalEdgeStyle;rounded=0;orthogonalLoop=1;jettySize=auto;html=1;exitX=0.5;exitY=1;exitDx=0;exitDy=0;entryX=0.5;entryY=0;entryDx=0;entryDy=0;" edge="1" parent="AnIqcLEGAnxSQ210GE3i-4" source="AnIqcLEGAnxSQ210GE3i-14" target="AnIqcLEGAnxSQ210GE3i-17">
          <mxGeometry relative="1" as="geometry" />
        </mxCell>
        <mxCell id="AnIqcLEGAnxSQ210GE3i-19" value="Approve" style="edgeLabel;html=1;align=center;verticalAlign=middle;resizable=0;points=[];" vertex="1" connectable="0" parent="AnIqcLEGAnxSQ210GE3i-18">
          <mxGeometry x="-0.3037" relative="1" as="geometry">
            <mxPoint as="offset" />
          </mxGeometry>
        </mxCell>
        <mxCell id="AnIqcLEGAnxSQ210GE3i-14" value="Validasi Input&amp;nbsp;&lt;div&gt;mahasiswa&lt;/div&gt;" style="rhombus;whiteSpace=wrap;html=1;" vertex="1" parent="AnIqcLEGAnxSQ210GE3i-4">
          <mxGeometry x="110" y="105" width="110" height="110" as="geometry" />
        </mxCell>
        <mxCell id="AnIqcLEGAnxSQ210GE3i-17" value="Menerbitkan Dokumen" style="shape=document;whiteSpace=wrap;html=1;boundedLbl=1;" vertex="1" parent="AnIqcLEGAnxSQ210GE3i-4">
          <mxGeometry x="104.99999999999955" y="260" width="120" height="80" as="geometry" />
        </mxCell>
        <mxCell id="AnIqcLEGAnxSQ210GE3i-13" style="edgeStyle=orthogonalEdgeStyle;rounded=0;orthogonalLoop=1;jettySize=auto;html=1;" edge="1" parent="AnIqcLEGAnxSQ210GE3i-2" source="AnIqcLEGAnxSQ210GE3i-12" target="AnIqcLEGAnxSQ210GE3i-14">
          <mxGeometry relative="1" as="geometry">
            <mxPoint x="689.9999999999995" y="180" as="targetPoint" />
          </mxGeometry>
        </mxCell>
        <mxCell id="AnIqcLEGAnxSQ210GE3i-15" style="edgeStyle=orthogonalEdgeStyle;rounded=0;orthogonalLoop=1;jettySize=auto;html=1;entryX=1;entryY=0.5;entryDx=0;entryDy=0;entryPerimeter=0;" edge="1" parent="AnIqcLEGAnxSQ210GE3i-2" source="AnIqcLEGAnxSQ210GE3i-14" target="AnIqcLEGAnxSQ210GE3i-10">
          <mxGeometry relative="1" as="geometry">
            <Array as="points">
              <mxPoint x="445" y="80" />
            </Array>
          </mxGeometry>
        </mxCell>
        <mxCell id="AnIqcLEGAnxSQ210GE3i-16" value="Rejected" style="edgeLabel;html=1;align=center;verticalAlign=middle;resizable=0;points=[];" vertex="1" connectable="0" parent="AnIqcLEGAnxSQ210GE3i-15">
          <mxGeometry x="-0.8975" relative="1" as="geometry">
            <mxPoint as="offset" />
          </mxGeometry>
        </mxCell>
        <mxCell id="AnIqcLEGAnxSQ210GE3i-21" value="Download .pdf" style="rounded=1;whiteSpace=wrap;html=1;absoluteArcSize=1;arcSize=14;strokeWidth=2;" vertex="1" parent="1">
          <mxGeometry x="350" y="150" width="100" height="100" as="geometry" />
        </mxCell>
        <mxCell id="AnIqcLEGAnxSQ210GE3i-20" style="edgeStyle=orthogonalEdgeStyle;rounded=0;orthogonalLoop=1;jettySize=auto;html=1;" edge="1" parent="1" source="AnIqcLEGAnxSQ210GE3i-17" target="AnIqcLEGAnxSQ210GE3i-21">
          <mxGeometry relative="1" as="geometry">
            <mxPoint x="400" y="200" as="targetPoint" />
          </mxGeometry>
        </mxCell>
        <mxCell id="AnIqcLEGAnxSQ210GE3i-23" style="edgeStyle=orthogonalEdgeStyle;rounded=0;orthogonalLoop=1;jettySize=auto;html=1;entryX=0.5;entryY=0;entryDx=0;entryDy=0;entryPerimeter=0;" edge="1" parent="1" source="AnIqcLEGAnxSQ210GE3i-21" target="AnIqcLEGAnxSQ210GE3i-22">
          <mxGeometry relative="1" as="geometry" />
        </mxCell>
      </root>
    </mxGraphModel>
  </diagram>
</mxfile>
